<?xml version="1.0" encoding="utf-8"?>
<!-- Generator: Adobe Illustrator 26.0.1, SVG Export Plug-In . SVG Version: 6.00 Build 0)  -->
<svg version="1.1" id="Layer_1" xmlns="http://www.w3.org/2000/svg" xmlns:xlink="http://www.w3.org/1999/xlink" x="0px" y="0px"
	 viewBox="0 0 15 15" style="enable-background:new 0 0 15 15;" xml:space="preserve">
<style type="text/css">
	.st0{fill:#FFD013;}
</style>
<g>
	<path class="st0" d="M9.7,6.8c0.6-1.1,0.6-3.4,0.6-4.3c0-0.1,0-0.3,0-0.4c-1.8-0.3-3.7-0.3-5.6,0c0,0-0.1,3.4,0.6,4.7
		C5.8,7.7,6.5,8.3,7,8.6C7,8.7,7,8.7,7,8.8v0.2C7,9,7,9.1,7.1,9.1h0.1v1.6l-0.3,0.5H6.5l-0.6,0.6v1H5.6v0.2h3.8v-0.2H9.1v-1
		l-0.6-0.6H8.1l-0.3-0.5h0V9.1h0.1C7.9,9.1,8,9,8,8.9V8.8c0,0,0-0.1-0.1-0.1C8.4,8.3,9.2,7.7,9.7,6.8z"/>
	<path class="st0" d="M9.7,6.8L9.7,6.8c0.5-0.9,0.6-3,0.6-4c0-0.1,0-0.2,0-0.3c0-0.1,0-0.3,0-0.4v0l0,0C9.4,1.9,8.4,1.9,7.5,1.9
		c-0.9,0-1.9,0.1-2.8,0.2l0,0l0,0c0,0,0,0.3,0,0.7c0,1.1,0.1,3.1,0.6,4C5.7,7.7,6.5,8.3,7,8.7l0,0l0,0C7,8.6,6.9,8.7,6.9,8.8v0.2
		C6.9,9,7,9.1,7.1,9.1h0.1v1.6l-0.3,0.5l-0.3,0l-0.6,0.6v1l-0.3,0v0.3h3.8v-0.3H9.1l0-1l-0.7-0.6H8.1l-0.3-0.5h0v0h0V9.1h0.1
		C8,9.1,8,9,8,8.9V8.8c0,0,0-0.1-0.1-0.1l0,0l0,0C8.4,8.3,9.3,7.7,9.7,6.8L9.7,6.8L9.7,6.8C9.2,7.7,8.4,8.3,7.9,8.6l0,0l0,0
		C8,8.7,8,8.7,8,8.8v0.2C8,9,7.9,9,7.9,9H7.8h0v1.7h0l0.3,0.5h0.3l0.6,0.6l0,1h0.3l0,0.2H5.6v-0.2l0.3,0v-1l0.6-0.6h0.3l0.3-0.5V9
		H7.1C7,9,7,9,7,8.9V8.8c0,0,0-0.1,0.1-0.1l0,0l0,0C6.6,8.3,5.8,7.7,5.3,6.8c-0.5-0.9-0.6-3-0.6-4c0-0.2,0-0.4,0-0.5
		c0-0.1,0-0.2,0-0.2l0,0l0,0C5.6,2,6.6,1.9,7.5,1.9c0.9,0,1.9,0.1,2.8,0.2l0,0h0c0,0.1,0,0.3,0,0.4c0,0.1,0,0.2,0,0.3
		C10.3,3.9,10.2,5.9,9.7,6.8L9.7,6.8z"/>
	<path class="st0" d="M9.4,13.2H5.6c0,0,0,0,0,0v-0.2c0,0,0,0,0,0h0.3v-1c0,0,0,0,0,0l0.6-0.6c0,0,0,0,0,0h0.3l0.3-0.5V9.1H7.1
		C7,9.1,6.9,9,6.9,8.9V8.8c0,0,0-0.1,0-0.1c-0.6-0.4-1.3-1-1.7-1.8C4.9,6.3,4.8,5.3,4.7,4c-0.1-1,0-1.9,0-1.9c0,0,0,0,0,0
		c1.9-0.3,3.7-0.3,5.6,0c0,0,0,0,0,0v0.4c0,1,0,3.3-0.6,4.4l0,0l0,0C9.3,7.7,8.5,8.3,8,8.7c0,0,0,0.1,0,0.1v0.2C8.1,9,8,9.1,7.9,9.1
		h0v1.6l0.3,0.5h0.3c0,0,0,0,0,0l0.6,0.6c0,0,0,0,0,0v1h0.3c0,0,0,0,0,0L9.4,13.2C9.4,13.1,9.4,13.2,9.4,13.2z M5.7,13.1h3.7v-0.1
		H9.1c0,0,0,0,0,0v-1l-0.6-0.6H8.1c0,0,0,0,0,0l-0.3-0.5c0,0,0,0,0,0V9.1c0,0,0,0,0,0h0.1C7.9,9,8,9,8,8.9V8.8c0,0,0,0,0-0.1
		c0,0,0,0,0,0c0,0,0,0,0,0c0.5-0.3,1.3-0.9,1.8-1.8c0.6-1,0.6-3.4,0.6-4.3l0-0.3c-1.8-0.3-3.7-0.3-5.5,0c0,0.4-0.1,3.4,0.6,4.7
		c0.4,0.8,1.2,1.4,1.7,1.8c0,0,0,0,0,0c0,0,0,0,0,0c0,0-0.1,0-0.1,0.1v0.2C7,9,7,9,7.1,9h0.1c0,0,0,0,0,0v1.6c0,0,0,0,0,0l-0.3,0.5
		c0,0,0,0,0,0H6.6L6,11.9v1c0,0,0,0,0,0H5.7V13.1z"/>
	<path class="st0" d="M9.4,13.2L9.4,13.2l-3.8,0c0,0,0,0,0,0v-0.2c0,0,0,0,0,0h0.3v-1c0,0,0,0,0,0l0.6-0.6c0,0,0,0,0,0h0.3l0.3-0.5
		V9.1H7.1C7,9.1,6.9,9,6.9,8.9V8.8c0,0,0-0.1,0-0.1l0,0l0,0c-0.5-0.4-1.3-1-1.7-1.8C5,6.3,4.8,5.3,4.7,4c0-0.4,0-0.8,0-1.2
		c0-0.4,0-0.7,0-0.7c0,0,0,0,0,0c0.9-0.1,1.9-0.2,2.8-0.2c0.9,0,1.9,0.1,2.8,0.2c0,0,0,0,0,0v0.4c0,0.1,0,0.2,0,0.3
		c0,1.1-0.1,3.1-0.6,4l0,0l0,0l0,0l0,0l0,0l0,0l0,0C9.3,7.7,8.5,8.3,8,8.7l0,0l0,0c0,0,0,0.1,0,0.1v0.2C8,9,8,9.1,7.9,9.1h0h0v1.6
		l0.3,0.5h0.3c0,0,0,0,0,0l0.6,0.6c0,0,0,0,0,0v1h0.3c0,0,0,0,0,0L9.4,13.2C9.4,13.1,9.4,13.2,9.4,13.2L9.4,13.2L9.4,13.2
		C9.4,13.2,9.5,13.2,9.4,13.2l0.1-0.3c0,0,0-0.1-0.1-0.1H9.1v-1c0,0,0,0,0,0l-0.6-0.6c0,0,0,0,0,0H8.2l-0.3-0.5V9.1l0,0
		C8,9.1,8.1,9,8.1,8.9V8.8c0,0,0-0.1,0-0.1l0,0l0,0c0.5-0.3,1.3-0.9,1.7-1.8l0,0l-0.1,0l0,0l0,0l0,0l0,0c0.5-1,0.6-3,0.6-4.1
		c0-0.1,0-0.2,0-0.3V2.1c0,0,0-0.1-0.1-0.1C9.4,1.9,8.4,1.8,7.5,1.8C6.6,1.8,5.6,1.9,4.7,2c0,0,0,0-0.1,0.1c0,0,0,0.3,0,0.7
		c0,0.3,0,0.7,0,1.2c0.1,1.4,0.3,2.3,0.6,2.9C5.7,7.7,6.4,8.3,7,8.7l0,0l0,0c0,0,0,0.1,0,0.1v0.2C6.9,9,7,9.1,7.1,9.1h0v1.6
		l-0.3,0.5H6.5c0,0,0,0,0,0l-0.6,0.6c0,0,0,0,0,0v1l-0.2,0c0,0-0.1,0-0.1,0.1v0.2c0,0,0,0.1,0.1,0.1L9.4,13.2L9.4,13.2z M5.7,13.1
		L5.7,13.1l3.7,0v-0.2H9.1c0,0,0,0,0,0v-1l-0.6-0.6H8.1c0,0,0,0,0,0l-0.3-0.5l0,0c0,0,0,0,0,0V9.1c0,0,0,0,0,0h0.1C7.9,9,8,9,8,8.9
		V8.8c0,0,0-0.1,0-0.1c0,0,0,0,0,0l0,0v0l0,0c0,0,0,0,0,0c0.5-0.3,1.3-0.9,1.8-1.8c0.5-0.9,0.6-2.9,0.6-4c0-0.1,0-0.2,0-0.3l0-0.4
		l0,0C9.3,2,8.4,1.9,7.5,1.9C6.6,1.9,5.7,2,4.8,2.1l0,0l0,0c0,0.1,0,0.3,0,0.6c0,1.1,0.1,3.1,0.6,4c0.4,0.8,1.2,1.4,1.7,1.8
		c0,0,0,0,0,0l0,0c0,0,0,0,0,0c0,0-0.1,0-0.1,0.1v0.2C7,9,7,9,7.1,9h0.1c0,0,0,0,0,0v1.6l0,0l-0.3,0.5c0,0,0,0,0,0H6.6L6,11.9v1
		c0,0,0,0,0,0H5.6L5.7,13.1L5.7,13.1L5.7,13.1L5.7,13.1l0-0.1l0.2,0c0,0,0.1,0,0.1-0.1v-1l0.6-0.6h0.3c0,0,0,0,0.1,0l0.3-0.5
		c0,0,0,0,0,0V9.1c0,0,0-0.1-0.1-0.1H7.1C7,9,7,9,7,8.9V8.8c0,0,0-0.1,0-0.1c0,0,0,0,0,0l0,0c0,0,0,0,0-0.1c-0.5-0.4-1.3-1-1.7-1.8
		c-0.5-0.9-0.6-3-0.6-4c0-0.3,0-0.6,0-0.6l0,0l0,0C5.7,2,6.6,1.9,7.5,1.9c0.9,0,1.8,0.1,2.7,0.2l0,0l0,0l0,0.3c0,0.1,0,0.2,0,0.3
		c0,1.1-0.1,3.1-0.6,4C9.2,7.7,8.4,8.3,7.9,8.6c0,0,0,0,0,0.1l0,0l0,0l0,0c0,0,0,0,0,0.1c0,0,0,0,0,0.1v0.2c0,0,0,0.1-0.1,0.1H7.8
		c0,0-0.1,0-0.1,0.1v1.6c0,0,0,0,0,0l0,0l0,0l0.3,0.5c0,0,0,0,0.1,0h0.3L9,11.9v1c0,0,0,0.1,0.1,0.1h0.2v0.1L5.7,13.1L5.7,13.1
		L5.7,13.1L5.7,13.1z"/>
	<path class="st0" d="M11.9,2.4c-0.6-0.2-1.2,0-1.4,0.6c-0.1,0.3-0.1,0.5,0,0.8c0.1,0.2,0.3,0.4,0.5,0.4c0.1,0,0.1,0,0.2-0.1
		c0-0.1,0-0.1-0.1-0.2c-0.1,0-0.3-0.1-0.3-0.3c0-0.1,0-0.2,0-0.3c0,0,0-0.1,0-0.1c0.1-0.3,0.3-0.4,0.6-0.4c0.3,0,0.5,0.3,0.6,0.6
		c0.1,0.3,0.1,0.7,0,1.1c-0.2,0.4-0.5,0.8-1,1.2c-0.1,0.1-0.1,0.1-0.2,0.2c-0.1,0-0.1,0.1-0.2,0.1C10.3,6.1,10,6.3,9.9,6.6
		c-0.1,0.2-0.1,0.5,0,0.7c0.1,0.2,0.4,0.4,0.6,0.4c0.1,0,0.1,0,0.2,0c0.3-0.1,0.6-0.4,0.5-0.7c0-0.1-0.1-0.1-0.2-0.1
		C11,6.9,10.9,6.9,11,7c0.1,0.2-0.2,0.3-0.3,0.4c-0.2,0.1-0.4,0-0.5-0.2c-0.1-0.2-0.1-0.3,0-0.5c0.1-0.2,0.3-0.4,0.5-0.6
		c0.1,0,0.1-0.1,0.2-0.1C10.9,6,11,5.9,11.1,5.8c0.7-0.6,1.1-1.2,1.3-1.8C12.4,3.7,12.6,2.7,11.9,2.4z"/>
	<path class="st0" d="M11.9,2.4L11.9,2.4c-0.1-0.1-0.3-0.1-0.4-0.1c-0.4,0-0.8,0.2-1,0.7c-0.1,0.1-0.1,0.3-0.1,0.4
		c0,0.1,0,0.3,0.1,0.4c0.1,0.2,0.3,0.4,0.5,0.5c0,0,0,0,0,0c0.1,0,0.1,0,0.1-0.1c0,0,0,0,0,0c0-0.1,0-0.1-0.1-0.1
		c-0.1,0-0.2-0.1-0.3-0.2l0,0l0,0c0-0.1,0-0.1,0-0.2c0,0,0,0,0-0.1c0,0,0-0.1,0-0.1c0.1-0.2,0.3-0.4,0.6-0.4l0,0
		c0.3,0,0.5,0.3,0.6,0.6C12,3.6,12,3.7,12,3.9c0,0.2,0,0.4-0.1,0.6l0,0l0,0c-0.2,0.4-0.5,0.8-1,1.2c-0.1,0.1-0.1,0.1-0.2,0.2
		c-0.1,0-0.1,0.1-0.2,0.1C10.3,6.1,10,6.3,9.9,6.6c0,0.1-0.1,0.2-0.1,0.3c0,0.1,0,0.3,0.1,0.4c0.1,0.2,0.4,0.4,0.6,0.4
		c0.1,0,0.1,0,0.2,0c0.3-0.1,0.5-0.3,0.5-0.6c0,0,0-0.1,0-0.1c0-0.1-0.1-0.1-0.1-0.1c0,0,0,0,0,0C11,6.9,11,6.9,11,7c0,0,0,0,0,0
		c0,0,0,0,0,0.1c0,0.1-0.2,0.3-0.3,0.3c0,0-0.1,0-0.1,0c-0.1,0-0.3-0.1-0.4-0.2c0-0.1-0.1-0.2-0.1-0.3c0-0.1,0-0.1,0-0.2
		c0.1-0.2,0.3-0.4,0.5-0.5c0.1,0,0.1-0.1,0.2-0.1C11,6,11,5.9,11.1,5.8c0.7-0.6,1.1-1.2,1.3-1.9c0-0.1,0.1-0.3,0.1-0.6
		c0-0.2,0-0.4-0.1-0.6C12.2,2.6,12.1,2.5,11.9,2.4L11.9,2.4L11.9,2.4c0.2,0.1,0.4,0.3,0.4,0.4c0.1,0.2,0.1,0.4,0.1,0.6
		c0,0.2,0,0.4-0.1,0.6c-0.1,0.6-0.5,1.2-1.3,1.8C11,5.9,10.9,5.9,10.9,6c-0.1,0-0.1,0.1-0.2,0.1c-0.2,0.2-0.4,0.3-0.5,0.6
		c0,0.1,0,0.1,0,0.2c0,0.1,0,0.2,0.1,0.3c0.1,0.1,0.2,0.2,0.4,0.2c0,0,0.1,0,0.1,0c0.1,0,0.3-0.2,0.3-0.3c0,0,0,0,0-0.1c0,0,0,0,0,0
		c0-0.1,0-0.1,0.1-0.1c0,0,0,0,0,0c0.1,0,0.1,0,0.1,0.1c0,0,0,0.1,0,0.1c0,0.3-0.2,0.5-0.5,0.6c-0.1,0-0.1,0-0.2,0
		c-0.2,0-0.5-0.1-0.6-0.4C9.9,7.2,9.9,7,9.9,6.9c0-0.1,0-0.2,0.1-0.3c0.1-0.3,0.4-0.5,0.6-0.7c0.1,0,0.1-0.1,0.2-0.1
		c0.1-0.1,0.1-0.1,0.2-0.2c0.5-0.4,0.8-0.8,1-1.2l0,0l0,0C12,4.3,12,4.1,12,3.9c0-0.2,0-0.3-0.1-0.5c-0.1-0.3-0.3-0.6-0.6-0.6l0,0
		c-0.3,0-0.5,0.2-0.6,0.4c0,0,0,0.1,0,0.1c0,0,0,0,0,0.1c0,0.1,0,0.2,0,0.2l0,0l0,0c0.1,0.1,0.2,0.2,0.3,0.3c0.1,0,0.1,0.1,0.1,0.1
		c0,0,0,0,0,0c0,0.1-0.1,0.1-0.1,0.1c0,0,0,0,0,0c-0.2-0.1-0.4-0.2-0.5-0.4c-0.1-0.1-0.1-0.2-0.1-0.4c0-0.1,0-0.3,0.1-0.4
		c0.2-0.4,0.5-0.6,0.9-0.6C11.6,2.3,11.7,2.3,11.9,2.4L11.9,2.4z"/>
	<path class="st0" d="M10.6,7.7c-0.3,0-0.5-0.1-0.6-0.4c-0.1-0.2-0.1-0.5,0-0.8c0.1-0.3,0.4-0.5,0.6-0.7c0.1,0,0.1-0.1,0.2-0.1
		c0.1-0.1,0.1-0.1,0.2-0.2c0.5-0.4,0.8-0.8,1-1.2c0.1-0.3,0.1-0.7,0-1c-0.1-0.2-0.2-0.5-0.6-0.5c-0.2,0-0.5,0.2-0.5,0.4
		c0,0,0,0.1,0,0.1c0,0.1,0,0.2,0,0.3c0.1,0.1,0.2,0.2,0.3,0.2c0.1,0,0.1,0.1,0.1,0.2c0,0,0,0.1-0.1,0.1c0,0-0.1,0-0.1,0
		c-0.2-0.1-0.4-0.2-0.5-0.5c-0.1-0.2-0.1-0.5,0-0.8c0.2-0.6,0.9-0.8,1.5-0.6c0.8,0.3,0.6,1.3,0.5,1.7c-0.1,0.7-0.5,1.3-1.3,1.9
		C11.1,5.9,11,6,10.9,6.1c-0.1,0-0.1,0.1-0.2,0.1c-0.2,0.2-0.4,0.3-0.5,0.5c-0.1,0.1,0,0.3,0,0.4c0.1,0.2,0.3,0.2,0.4,0.2
		c0.1,0,0.3-0.2,0.3-0.3c0,0,0-0.1,0-0.1c0,0,0.1-0.1,0.1-0.1c0,0,0.1,0,0.1,0c0,0,0.1,0.1,0.1,0.1c0.1,0.3-0.2,0.7-0.5,0.8
		C10.7,7.7,10.6,7.7,10.6,7.7L10.6,7.7z M11.3,2.8L11.3,2.8c0.3,0,0.6,0.2,0.7,0.6c0.1,0.3,0.1,0.7,0,1.1l0,0
		c-0.2,0.4-0.5,0.8-1,1.2c-0.1,0.1-0.1,0.1-0.2,0.2c-0.1,0-0.1,0.1-0.2,0.1c-0.2,0.2-0.5,0.3-0.6,0.6c-0.1,0.2-0.1,0.5,0,0.7
		c0.1,0.2,0.3,0.3,0.6,0.3h0c0.1,0,0.1,0,0.2,0c0.3-0.1,0.5-0.4,0.4-0.6c0,0,0,0,0,0c0,0,0,0-0.1,0c0,0,0,0,0,0c0,0,0,0,0,0.1
		c0.1,0.2-0.2,0.4-0.3,0.4c-0.2,0.1-0.4,0-0.5-0.2c-0.1-0.2-0.1-0.4,0-0.5c0.1-0.3,0.3-0.4,0.5-0.6c0.1,0,0.1-0.1,0.2-0.1
		c0.1-0.1,0.1-0.1,0.2-0.2c0.7-0.6,1.1-1.2,1.2-1.8c0.1-0.3,0.2-1.3-0.5-1.5h0c-0.6-0.2-1.1,0-1.3,0.5c-0.1,0.2-0.1,0.5,0,0.7
		C10.6,3.9,10.8,4,11,4.1c0,0,0,0,0.1,0c0,0,0,0,0,0c0,0,0-0.1-0.1-0.1c-0.2-0.1-0.3-0.1-0.4-0.3l0,0c0-0.1,0-0.2,0-0.3
		c0,0,0-0.1,0-0.1C10.8,3,11,2.8,11.3,2.8z"/>
	<path class="st0" d="M10.6,7.7L10.6,7.7c-0.3,0-0.5-0.2-0.6-0.4C9.9,7.2,9.8,7,9.8,6.9c0-0.1,0-0.2,0.1-0.3
		c0.1-0.3,0.4-0.5,0.6-0.7c0.1,0,0.1-0.1,0.2-0.1c0.1-0.1,0.1-0.1,0.2-0.2c0.5-0.4,0.8-0.8,1-1.2l0,0l0,0C11.9,4.3,12,4.1,12,3.9
		c0-0.2,0-0.3-0.1-0.4c0-0.1-0.1-0.2-0.2-0.3c-0.1-0.1-0.2-0.2-0.4-0.2l0,0c-0.2,0-0.5,0.2-0.5,0.4c0,0,0,0.1,0,0.1c0,0,0,0,0,0.1
		c0,0.1,0,0.1,0,0.2l0,0l0,0c0.1,0.1,0.2,0.2,0.3,0.2c0.1,0,0.1,0.1,0.1,0.2c0,0,0,0,0,0.1c0,0,0,0.1-0.1,0.1c0,0-0.1,0-0.1,0
		c0,0,0,0-0.1,0c-0.2-0.1-0.4-0.2-0.5-0.5c-0.1-0.1-0.1-0.3-0.1-0.4c0-0.1,0-0.3,0.1-0.4c0.2-0.4,0.6-0.7,1-0.7c0.1,0,0.3,0,0.5,0.1
		c0.5,0.2,0.6,0.7,0.6,1.1c0,0.2,0,0.4-0.1,0.6c-0.1,0.7-0.5,1.2-1.3,1.9C11,5.9,11,6,10.9,6c-0.1,0-0.1,0.1-0.2,0.1
		c-0.2,0.2-0.4,0.3-0.5,0.5c0,0.1,0,0.1,0,0.2c0,0.1,0,0.2,0.1,0.3c0.1,0.1,0.2,0.2,0.3,0.2c0,0,0.1,0,0.1,0c0,0,0.1-0.1,0.2-0.1
		c0.1,0,0.1-0.1,0.1-0.2c0,0,0,0,0,0c0,0,0,0,0-0.1c0,0,0-0.1,0-0.1c0,0,0.1-0.1,0.1-0.1c0,0,0,0,0.1,0c0,0,0.1,0,0.1,0
		c0,0,0.1,0.1,0.1,0.1c0,0.1,0,0.1,0,0.2c0,0.3-0.2,0.5-0.5,0.6C10.7,7.7,10.6,7.7,10.6,7.7L10.6,7.7L10.6,7.7L10.6,7.7L10.6,7.7
		c0.1,0,0.2,0,0.2,0c0.3-0.1,0.5-0.3,0.5-0.6c0-0.1,0-0.1,0-0.2c0,0-0.1-0.1-0.1-0.1c0,0-0.1,0-0.1,0c0,0,0,0-0.1,0
		c0,0-0.1,0.1-0.1,0.1c0,0,0,0.1,0,0.1c0,0,0,0,0,0.1c0,0,0,0,0,0c0,0.1,0,0.1-0.1,0.2c-0.1,0-0.1,0.1-0.2,0.1c0,0-0.1,0-0.1,0
		c-0.1,0-0.2-0.1-0.3-0.2c0-0.1-0.1-0.2-0.1-0.3c0-0.1,0-0.1,0-0.2c0.1-0.2,0.3-0.4,0.5-0.5c0.1,0,0.1-0.1,0.2-0.1
		C11,6,11.1,5.9,11.1,5.9c0.7-0.6,1.1-1.2,1.3-1.9c0-0.1,0.1-0.3,0.1-0.6c0-0.4-0.1-0.9-0.6-1.1c-0.2-0.1-0.3-0.1-0.5-0.1
		c-0.4,0-0.8,0.3-1,0.7c-0.1,0.1-0.1,0.3-0.1,0.4c0,0.1,0,0.3,0.1,0.4C10.5,4,10.7,4.1,11,4.2c0,0,0,0,0.1,0c0,0,0.1,0,0.1,0
		c0,0,0.1-0.1,0.1-0.1c0,0,0,0,0-0.1c0-0.1-0.1-0.2-0.1-0.2c-0.1,0-0.2-0.1-0.3-0.2l0,0l0,0c0-0.1,0-0.1,0-0.2c0,0,0,0,0-0.1
		c0,0,0-0.1,0-0.1c0.1-0.2,0.3-0.4,0.5-0.4l0,0c0.2,0,0.3,0.1,0.4,0.2c0.1,0.1,0.1,0.2,0.2,0.3c0,0.1,0.1,0.3,0.1,0.4
		c0,0.2,0,0.4-0.1,0.6l0,0l0,0c-0.2,0.4-0.5,0.8-1,1.1c-0.1,0.1-0.1,0.1-0.2,0.2c-0.1,0-0.1,0.1-0.2,0.1C10.3,6.1,10,6.2,9.9,6.6
		c0,0.1-0.1,0.2-0.1,0.3c0,0.1,0,0.3,0.1,0.4C10,7.6,10.3,7.7,10.6,7.7L10.6,7.7z M11.3,2.8L11.3,2.8L11.3,2.8
		c0.3,0,0.6,0.2,0.7,0.6C12,3.5,12,3.7,12,3.9c0,0.2,0,0.4-0.1,0.6l0,0l0,0l0,0l0,0l0,0c-0.2,0.4-0.5,0.8-1,1.2
		c-0.1,0.1-0.1,0.1-0.2,0.2c-0.1,0-0.1,0.1-0.2,0.1c-0.2,0.2-0.5,0.3-0.6,0.6c0,0.1-0.1,0.2-0.1,0.3c0,0.1,0,0.3,0.1,0.4
		c0.1,0.2,0.3,0.3,0.6,0.3h0c0.1,0,0.1,0,0.2,0c0.2-0.1,0.4-0.3,0.4-0.5c0,0,0-0.1,0-0.1c0,0,0,0,0-0.1c0,0,0,0,0,0c0,0,0,0,0,0
		c0,0,0,0-0.1,0c0,0,0,0,0,0c0,0,0,0,0,0c0,0,0,0,0,0.1c0,0.2-0.2,0.3-0.3,0.3c0,0-0.1,0-0.1,0c-0.2,0-0.3-0.1-0.4-0.2
		c-0.1-0.1-0.1-0.2-0.1-0.3c0-0.1,0-0.2,0-0.2c0.1-0.2,0.3-0.4,0.5-0.6c0.1,0,0.1-0.1,0.2-0.1c0.1-0.1,0.1-0.1,0.2-0.2
		c0.7-0.6,1.1-1.2,1.3-1.8c0-0.1,0.1-0.3,0.1-0.5c0-0.2,0-0.4-0.1-0.6c-0.1-0.2-0.2-0.3-0.4-0.4l0,0h0v0l0,0
		c-0.1-0.1-0.3-0.1-0.4-0.1c-0.4,0-0.8,0.2-0.9,0.6c-0.1,0.1-0.1,0.3-0.1,0.4c0,0.1,0,0.2,0.1,0.4c0.1,0.2,0.3,0.4,0.5,0.4
		c0,0,0,0,0,0c0,0,0,0,0,0c0,0,0,0,0-0.1c0,0,0,0,0,0c0,0,0-0.1-0.1-0.1c-0.2-0.1-0.3-0.1-0.3-0.3l0,0l0,0l0,0l0,0l0,0
		c0-0.1,0-0.2,0-0.2c0,0,0,0,0-0.1c0,0,0-0.1,0-0.1C10.8,3,11,2.8,11.3,2.8L11.3,2.8L11.3,2.8c-0.3,0-0.6,0.2-0.6,0.5
		c0,0,0,0.1,0,0.1c0,0,0,0,0,0.1c0,0.1,0,0.2,0,0.2l0,0l0,0l0,0l0,0C10.8,3.8,10.9,3.9,11,4c0,0,0.1,0,0.1,0.1l0,0c0,0,0,0,0,0
		c0,0,0,0,0,0l0,0c-0.2-0.1-0.4-0.2-0.5-0.4c0-0.1-0.1-0.2-0.1-0.3c0-0.1,0-0.2,0.1-0.4c0.2-0.4,0.5-0.6,0.9-0.6
		c0.1,0,0.3,0,0.4,0.1l0,0h0v0l0,0c0.2,0.1,0.3,0.2,0.4,0.4c0.1,0.2,0.1,0.4,0.1,0.6c0,0.2,0,0.4-0.1,0.5c-0.1,0.6-0.5,1.2-1.2,1.8
		C11,5.8,10.9,5.9,10.8,6c-0.1,0-0.1,0.1-0.2,0.1c-0.2,0.2-0.4,0.3-0.5,0.6c0,0.1,0,0.1,0,0.2c0,0.1,0,0.2,0.1,0.3
		c0.1,0.2,0.2,0.3,0.4,0.3c0,0,0.1,0,0.1,0C10.8,7.4,11,7.3,11,7.1c0,0,0-0.1,0-0.1l0,0c0,0,0,0,0,0c0,0,0,0,0,0l0,0c0,0,0,0,0,0
		c0,0,0,0,0,0c0,0,0,0.1,0,0.1c0,0.2-0.2,0.4-0.4,0.5c-0.1,0-0.1,0-0.2,0h0c-0.2,0-0.4-0.1-0.5-0.3C10,7.2,9.9,7,9.9,6.9
		c0-0.1,0-0.2,0.1-0.3c0.1-0.3,0.4-0.5,0.6-0.6c0.1,0,0.1-0.1,0.2-0.1c0.1-0.1,0.1-0.1,0.2-0.2c0.5-0.4,0.8-0.8,1-1.2l0,0l0,0l0,0
		l0,0c0.1-0.2,0.1-0.4,0.1-0.6c0-0.2,0-0.3-0.1-0.5C11.9,3,11.6,2.8,11.3,2.8L11.3,2.8L11.3,2.8z"/>
	<path class="st0" d="M5.1,6.6C5,6.3,4.7,6.1,4.5,5.9c-0.1,0-0.1-0.1-0.2-0.1C4.2,5.7,4.2,5.7,4.1,5.6c-0.5-0.4-0.8-0.8-1-1.2
		C3,4.1,3,3.7,3.1,3.4c0.1-0.3,0.3-0.6,0.6-0.6c0.3,0,0.5,0.2,0.6,0.4c0,0,0,0.1,0,0.1c0,0.1,0,0.2,0,0.3C4.2,3.8,4.1,3.9,3.9,3.9
		C3.9,3.9,3.8,4,3.9,4.1C3.9,4.2,4,4.2,4,4.2c0.2-0.1,0.4-0.2,0.5-0.4c0.1-0.2,0.1-0.5,0-0.8C4.3,2.4,3.7,2.2,3.1,2.4
		C2.4,2.7,2.6,3.7,2.6,4c0.1,0.6,0.5,1.2,1.3,1.8C4,5.9,4.1,6,4.1,6c0.1,0,0.1,0.1,0.2,0.1c0.2,0.2,0.4,0.3,0.5,0.6
		c0.1,0.2,0.1,0.3,0,0.5C4.7,7.4,4.5,7.5,4.3,7.4C4.2,7.3,4,7.2,4,7c0-0.1,0-0.1-0.1-0.2c-0.1,0-0.1,0-0.2,0.1
		C3.7,7.3,3.9,7.5,4.2,7.6c0.1,0,0.1,0,0.2,0c0.2,0,0.5-0.1,0.6-0.4C5.2,7.1,5.2,6.8,5.1,6.6z"/>
	<path class="st0" d="M5.1,6.6L5.1,6.6C5,6.3,4.7,6.1,4.5,5.9c-0.1,0-0.1-0.1-0.2-0.1C4.2,5.7,4.2,5.7,4.1,5.6
		c-0.5-0.4-0.8-0.8-1-1.2l0,0l0,0C3,4.3,3,4.1,3,3.9c0-0.2,0-0.3,0.1-0.5c0.1-0.3,0.3-0.6,0.6-0.6l0,0c0.3,0,0.5,0.2,0.6,0.4
		c0,0,0,0.1,0,0.1c0,0,0,0,0,0.1c0,0.1,0,0.1,0,0.2l0,0l0,0C4.2,3.8,4.1,3.9,3.9,3.9C3.9,3.9,3.8,4,3.8,4c0,0,0,0,0,0
		c0,0.1,0.1,0.1,0.1,0.1c0,0,0,0,0,0c0.2-0.1,0.4-0.2,0.5-0.5c0.1-0.1,0.1-0.2,0.1-0.4c0-0.1,0-0.3-0.1-0.4C4.4,2.5,4,2.3,3.6,2.3
		c-0.1,0-0.3,0-0.4,0.1C2.9,2.5,2.8,2.6,2.7,2.8C2.6,3,2.6,3.2,2.6,3.4c0,0.2,0,0.4,0.1,0.6c0.1,0.6,0.5,1.2,1.3,1.9
		C4,5.9,4,6,4.1,6c0.1,0,0.1,0.1,0.2,0.1c0.2,0.2,0.4,0.3,0.5,0.5c0,0.1,0,0.1,0,0.2c0,0.1,0,0.2-0.1,0.3C4.7,7.3,4.6,7.4,4.4,7.4
		c0,0-0.1,0-0.1,0C4.2,7.3,4,7.2,4,7.1c0,0,0,0,0-0.1c0,0,0,0,0,0c0-0.1,0-0.1-0.1-0.1c0,0,0,0,0,0c-0.1,0-0.1,0-0.1,0.1
		c0,0.1,0,0.1,0,0.1c0,0.3,0.2,0.5,0.5,0.6c0.1,0,0.1,0,0.2,0c0.2,0,0.5-0.1,0.6-0.4C5.1,7.2,5.2,7,5.2,6.9C5.2,6.8,5.1,6.7,5.1,6.6
		L5.1,6.6L5.1,6.6c0,0.1,0,0.2,0,0.3c0,0.1,0,0.3-0.1,0.4C4.9,7.5,4.7,7.7,4.4,7.7c-0.1,0-0.1,0-0.2,0C4,7.5,3.8,7.3,3.8,7.1
		c0,0,0-0.1,0-0.1c0-0.1,0.1-0.1,0.1-0.1c0,0,0,0,0,0C4,6.9,4,6.9,4,7c0,0,0,0,0,0c0,0,0,0,0,0.1c0,0.2,0.2,0.3,0.3,0.3
		c0,0,0.1,0,0.1,0c0.1,0,0.3-0.1,0.4-0.2c0-0.1,0.1-0.2,0.1-0.3c0-0.1,0-0.1,0-0.2C4.7,6.4,4.5,6.3,4.3,6.1C4.3,6.1,4.2,6,4.1,6
		C4.1,5.9,4,5.9,3.9,5.8C3.2,5.2,2.8,4.6,2.7,4c0-0.1-0.1-0.3-0.1-0.6c0-0.2,0-0.4,0.1-0.6c0.1-0.2,0.2-0.3,0.4-0.4
		c0.1-0.1,0.3-0.1,0.4-0.1C4,2.3,4.4,2.5,4.5,3c0.1,0.1,0.1,0.3,0.1,0.4c0,0.1,0,0.3-0.1,0.4C4.4,3.9,4.3,4.1,4,4.2c0,0,0,0,0,0
		c-0.1,0-0.1,0-0.1-0.1c0,0,0,0,0,0c0-0.1,0-0.1,0.1-0.1c0.1,0,0.3-0.1,0.3-0.3l0,0l0,0c0-0.1,0-0.1,0-0.2c0,0,0,0,0-0.1
		c0,0,0-0.1,0-0.1C4.2,3,4,2.8,3.7,2.8l0,0c-0.3,0-0.5,0.3-0.6,0.6C3,3.6,3,3.7,3,3.9c0,0.2,0,0.4,0.1,0.6l0,0l0,0
		c0.2,0.4,0.5,0.8,1,1.2c0.1,0.1,0.1,0.1,0.2,0.2c0.1,0,0.1,0.1,0.2,0.1C4.7,6.1,4.9,6.3,5.1,6.6L5.1,6.6z"/>
	<path class="st0" d="M4.4,7.7L4.4,7.7c-0.1,0-0.2,0-0.2,0C3.9,7.6,3.6,7.3,3.7,6.9c0,0,0-0.1,0.1-0.1c0,0,0.1,0,0.1,0
		c0,0,0.1,0,0.1,0.1c0,0,0,0.1,0,0.1c0,0.1,0.2,0.3,0.3,0.3c0.2,0.1,0.3,0,0.4-0.2c0.1-0.1,0.1-0.3,0-0.4C4.7,6.5,4.5,6.3,4.3,6.2
		c-0.1,0-0.1-0.1-0.2-0.1C4,6,3.9,5.9,3.9,5.9C3.1,5.3,2.7,4.7,2.6,4C2.5,3.7,2.4,2.6,3.1,2.3c0.6-0.2,1.2,0,1.5,0.6
		c0.1,0.3,0.1,0.6,0,0.8C4.5,4,4.3,4.1,4,4.2c0,0-0.1,0-0.1,0c0,0-0.1-0.1-0.1-0.1c0-0.1,0-0.2,0.1-0.2c0.1,0,0.2-0.1,0.3-0.2
		c0-0.1,0-0.2,0-0.3c0,0,0-0.1,0-0.1C4.2,3,3.9,2.9,3.7,2.9c-0.4,0-0.5,0.3-0.6,0.5C3,3.7,3,4.1,3.1,4.4c0.2,0.4,0.5,0.8,1,1.2
		c0.1,0.1,0.1,0.1,0.2,0.2c0.1,0,0.1,0.1,0.2,0.1C4.7,6.1,5,6.3,5.1,6.6c0.1,0.2,0.1,0.5,0,0.8C4.9,7.6,4.7,7.7,4.4,7.7z M3.9,6.9
		C3.9,6.9,3.9,6.9,3.9,6.9C3.8,6.9,3.8,6.9,3.9,6.9C3.7,7.2,4,7.5,4.2,7.6c0.1,0,0.1,0,0.2,0h0c0.2,0,0.4-0.1,0.6-0.3
		c0.1-0.2,0.1-0.5,0-0.7C4.9,6.3,4.7,6.1,4.4,6c-0.1,0-0.1-0.1-0.2-0.1C4.2,5.8,4.1,5.7,4.1,5.7c-0.5-0.4-0.8-0.8-1-1.2l0,0
		C2.9,4.1,2.9,3.7,3,3.4C3.1,3,3.4,2.8,3.7,2.8C4,2.8,4.2,3,4.3,3.2c0,0,0,0.1,0,0.1c0,0.1,0,0.2,0,0.3l0,0C4.2,3.8,4.1,3.9,4,4
		c0,0-0.1,0.1-0.1,0.1c0,0,0,0,0,0c0,0,0,0,0.1,0C4.2,4,4.4,3.9,4.5,3.7c0.1-0.2,0.1-0.5,0-0.7C4.3,2.4,3.7,2.2,3.2,2.4
		C2.5,2.7,2.6,3.7,2.7,4c0.1,0.6,0.5,1.2,1.2,1.8C4,5.9,4.1,5.9,4.2,6c0.1,0,0.1,0.1,0.2,0.1c0.2,0.2,0.4,0.3,0.5,0.6
		c0.1,0.2,0.1,0.4,0,0.5C4.7,7.4,4.5,7.5,4.3,7.4C4.1,7.4,3.9,7.2,4,7C4,7,4,7,3.9,6.9C4,6.9,3.9,6.9,3.9,6.9
		C3.9,6.9,3.9,6.9,3.9,6.9z"/>
	<path class="st0" d="M4.4,7.7L4.4,7.7L4.4,7.7c-0.1,0-0.2,0-0.2-0.1C3.9,7.6,3.7,7.4,3.7,7.1c0-0.1,0-0.1,0-0.2c0,0,0-0.1,0.1-0.1
		c0,0,0.1,0,0.1,0c0,0,0,0,0.1,0c0,0,0.1,0,0.1,0.1c0,0,0,0.1,0,0.1c0,0,0,0,0,0.1c0,0,0,0,0,0c0,0.1,0,0.1,0.1,0.2
		c0.1,0,0.1,0.1,0.2,0.1c0,0,0.1,0,0.1,0c0.1,0,0.3-0.1,0.3-0.2c0-0.1,0.1-0.2,0.1-0.3c0-0.1,0-0.1,0-0.2C4.7,6.5,4.5,6.3,4.3,6.2
		C4.2,6.1,4.2,6.1,4.1,6C4,6,4,5.9,3.9,5.9C3.2,5.2,2.7,4.7,2.6,4c0-0.1-0.1-0.3-0.1-0.6c0-0.4,0.1-0.9,0.6-1.1
		c0.2-0.1,0.3-0.1,0.5-0.1c0.4,0,0.8,0.2,1,0.7c0.1,0.1,0.1,0.3,0.1,0.4c0,0.1,0,0.3-0.1,0.4C4.5,4,4.3,4.1,4,4.2c0,0,0,0-0.1,0
		c0,0-0.1,0-0.1,0c0,0-0.1-0.1-0.1-0.1c0,0,0,0,0-0.1c0-0.1,0-0.1,0.1-0.2c0.1,0,0.2-0.1,0.3-0.2l0,0l0,0c0-0.1,0-0.1,0-0.2
		c0,0,0,0,0-0.1c0,0,0-0.1,0-0.1C4.2,3,3.9,2.9,3.7,2.9l0,0C3.5,2.9,3.4,3,3.3,3.1C3.2,3.2,3.1,3.3,3.1,3.4C3.1,3.6,3,3.7,3,3.9
		c0,0.2,0,0.4,0.1,0.6l0,0l0,0c0.2,0.4,0.5,0.8,1,1.2c0.1,0.1,0.1,0.1,0.2,0.2c0.1,0,0.1,0.1,0.2,0.1C4.7,6.1,5,6.3,5.1,6.6
		c0,0.1,0.1,0.2,0.1,0.3c0,0.1,0,0.3-0.1,0.4C4.9,7.6,4.7,7.7,4.4,7.7L4.4,7.7L4.4,7.7c0.3,0,0.5-0.1,0.6-0.4
		c0.1-0.1,0.1-0.3,0.1-0.4c0-0.1,0-0.2-0.1-0.3C5,6.2,4.7,6.1,4.5,5.9c-0.1,0-0.1-0.1-0.2-0.1C4.3,5.7,4.2,5.6,4.1,5.6
		c-0.5-0.4-0.8-0.8-1-1.1l0,0l0,0C3.1,4.2,3.1,4.1,3.1,3.9c0-0.2,0-0.3,0.1-0.4c0-0.1,0.1-0.2,0.2-0.3C3.4,3,3.5,2.9,3.7,2.9l0,0
		c0.2,0,0.5,0.2,0.5,0.4c0,0,0,0.1,0,0.1c0,0,0,0,0,0.1c0,0.1,0,0.1,0,0.2l0,0l0,0C4.2,3.7,4.1,3.8,3.9,3.9C3.8,3.9,3.8,4,3.8,4
		c0,0,0,0,0,0.1c0,0,0.1,0.1,0.1,0.1c0,0,0.1,0,0.1,0c0,0,0,0,0.1,0C4.3,4.1,4.5,4,4.6,3.7c0.1-0.1,0.1-0.3,0.1-0.4
		c0-0.1,0-0.3-0.1-0.4C4.4,2.5,4,2.2,3.6,2.2c-0.1,0-0.3,0-0.5,0.1C2.6,2.5,2.5,3,2.5,3.4c0,0.2,0,0.5,0.1,0.6
		c0.1,0.7,0.5,1.3,1.3,1.9C3.9,5.9,4,6,4.1,6.1c0.1,0,0.1,0.1,0.2,0.1c0.2,0.2,0.4,0.3,0.5,0.5c0,0.1,0,0.1,0,0.2
		c0,0.1,0,0.2-0.1,0.3C4.7,7.3,4.6,7.3,4.4,7.3c0,0-0.1,0-0.1,0c0,0-0.1,0-0.2-0.1c-0.1,0-0.1-0.1-0.1-0.2c0,0,0,0,0,0
		c0,0,0,0,0-0.1c0,0,0-0.1,0-0.1c0,0-0.1-0.1-0.1-0.1c0,0,0,0-0.1,0c0,0-0.1,0-0.1,0c0,0-0.1,0.1-0.1,0.1c0,0.1,0,0.1,0,0.2
		c0,0.3,0.2,0.5,0.5,0.6C4.3,7.7,4.4,7.7,4.4,7.7L4.4,7.7L4.4,7.7z M3.9,6.9L3.9,6.9C3.9,6.9,3.9,6.9,3.9,6.9
		C3.8,6.9,3.8,6.9,3.9,6.9C3.8,7,3.8,7,3.8,7.1c0,0.2,0.2,0.4,0.4,0.5c0.1,0,0.1,0,0.2,0h0c0.2,0,0.4-0.1,0.6-0.3
		C5.1,7.2,5.1,7,5.1,6.9c0-0.1,0-0.2-0.1-0.3C4.9,6.3,4.7,6.1,4.4,6c-0.1,0-0.1-0.1-0.2-0.1C4.2,5.8,4.1,5.7,4.1,5.7
		c-0.5-0.4-0.8-0.8-1-1.2l0,0l0,0l0,0l0,0l0,0C3,4.3,3,4.1,3,3.9C3,3.7,3,3.5,3,3.4C3.1,3,3.4,2.8,3.7,2.8l0,0C4,2.8,4.2,3,4.3,3.2
		c0,0,0,0.1,0,0.1c0,0,0,0,0,0.1c0,0.1,0,0.2,0,0.2l0,0l0,0l0,0l0,0l0,0C4.2,3.8,4.1,3.9,4,4C3.9,4,3.9,4,3.9,4c0,0,0,0,0,0
		c0,0,0,0,0,0.1c0,0,0,0,0,0c0,0,0,0,0,0c0.2-0.1,0.4-0.2,0.5-0.4c0.1-0.1,0.1-0.2,0.1-0.4c0-0.1,0-0.3-0.1-0.4
		C4.3,2.6,4,2.3,3.6,2.3c-0.1,0-0.3,0-0.4,0.1C2.9,2.5,2.8,2.7,2.7,2.8C2.7,3,2.6,3.2,2.6,3.4c0,0.2,0,0.4,0.1,0.5
		c0.1,0.6,0.5,1.2,1.3,1.8C4,5.9,4.1,5.9,4.2,6c0.1,0,0.1,0.1,0.2,0.1c0.2,0.2,0.4,0.3,0.5,0.6c0,0.1,0,0.1,0,0.2
		c0,0.1,0,0.2-0.1,0.3C4.7,7.4,4.6,7.4,4.4,7.4c0,0-0.1,0-0.1,0C4.2,7.4,4,7.2,4,7.1c0,0,0,0,0-0.1C4,7,4,7,3.9,6.9
		C4,7,4,6.9,3.9,6.9C4,6.9,4,6.9,3.9,6.9C3.9,6.9,3.9,6.9,3.9,6.9L3.9,6.9L3.9,6.9L3.9,6.9C3.9,6.9,4,6.9,3.9,6.9C4,7,4,7,3.9,6.9
		L4,7c0,0,0,0.1,0,0.1c0,0.2,0.2,0.3,0.3,0.4c0,0,0.1,0,0.1,0c0.2,0,0.3-0.1,0.4-0.3C4.9,7.1,4.9,7,4.9,6.9c0-0.1,0-0.2,0-0.2
		C4.8,6.4,4.6,6.3,4.3,6.1C4.3,6,4.2,6,4.2,6C4.1,5.9,4,5.8,4,5.8C3.2,5.2,2.8,4.6,2.7,4c0-0.1-0.1-0.3-0.1-0.5c0-0.2,0-0.4,0.1-0.6
		C2.8,2.7,3,2.5,3.2,2.4c0.1-0.1,0.3-0.1,0.4-0.1C4,2.4,4.3,2.6,4.5,3c0,0.1,0.1,0.2,0.1,0.4c0,0.1,0,0.2-0.1,0.3
		C4.4,3.9,4.2,4,4,4.1l0,0c0,0,0,0,0,0c0,0,0,0,0,0l0,0C3.9,4,3.9,4,4,4c0.2-0.1,0.3-0.1,0.4-0.3l0,0l0,0l0,0l0,0c0-0.1,0-0.2,0-0.2
		c0,0,0,0,0-0.1c0,0,0-0.1,0-0.1C4.3,3,4,2.8,3.7,2.8l0,0C3.4,2.8,3.1,3,3,3.4c0,0.1-0.1,0.3-0.1,0.5c0,0.2,0,0.4,0.1,0.6l0,0l0,0
		l0,0l0,0c0.2,0.4,0.5,0.8,1,1.2c0.1,0.1,0.1,0.1,0.2,0.2c0.1,0,0.1,0.1,0.2,0.1C4.7,6.1,4.9,6.3,5,6.6c0,0.1,0.1,0.2,0.1,0.3
		C5.1,7,5,7.2,5,7.3C4.9,7.5,4.7,7.6,4.4,7.6h0c-0.1,0-0.1,0-0.2,0C4,7.5,3.8,7.3,3.8,7.1C3.8,7,3.8,7,3.9,6.9
		C3.8,6.9,3.8,6.9,3.9,6.9C3.9,6.9,3.9,6.9,3.9,6.9L3.9,6.9z"/>
</g>
</svg>
