<?xml version="1.0" encoding="utf-8"?>
<!-- Generator: Adobe Illustrator 26.0.1, SVG Export Plug-In . SVG Version: 6.00 Build 0)  -->
<svg version="1.1" id="Layer_1" xmlns="http://www.w3.org/2000/svg" xmlns:xlink="http://www.w3.org/1999/xlink" x="0px" y="0px"
	 viewBox="0 0 15 15" style="enable-background:new 0 0 15 15;" xml:space="preserve">
<style type="text/css">
	.st0{fill:#FFD013;}
</style>
<g>
	<path class="st0" d="M2.5,7.8c0-0.2,0-0.4,0-0.6c0,0,0-0.1,0-0.1c0-0.6,0.2-1.2,0.5-1.7c0.9-1.8,2.3-2.8,4.3-2.9
		c1.1-0.1,2.1,0.2,3,0.8c1.2,0.8,1.9,1.9,2.2,3.3c0,0.2,0.1,0.4,0.1,0.6c0,0.2,0,0.4,0,0.6c0,0,0,0.1,0,0.1c0,0.7-0.2,1.3-0.6,2
		c-0.8,1.4-2,2.3-3.6,2.6c-0.2,0-0.4,0.1-0.6,0.1c-0.2,0-0.4,0-0.6,0c0,0,0,0-0.1,0c-0.8-0.1-1.5-0.3-2.2-0.7
		C3.7,11,2.9,9.9,2.6,8.4C2.5,8.2,2.5,8,2.5,7.8z M3.7,5.3c0,0,0.1,0,0.1,0.1c0.3,0.2,0.6,0.3,0.9,0.5C4.9,5.9,5,6.1,4.9,6.3
		c-0.2,0.5-0.3,1-0.5,1.5c0,0,0,0.1,0,0.2c0.1,0.2,0.1,0.3,0.2,0.5C4.8,8.8,5,9.2,5.2,9.6c0.1,0.1,0.2,0.3,0.3,0.3
		C5.8,10,6,9.8,6,9.5c0.1-0.5,0.2-1,0.3-1.5c0-0.1,0.1-0.2,0.1-0.2c0.4-0.5,0.8-1,1.2-1.5C7.8,6.2,7.8,6,7.8,5.8
		c0-0.2-0.1-0.4-0.2-0.6C7.6,5.1,7.5,5,7.3,4.9C7.2,4.9,7,4.9,6.9,4.8C6.6,4.7,6.2,4.7,5.8,4.6c-0.2,0-0.3-0.1-0.3-0.4
		c0-0.1,0-0.1,0-0.2c0-0.2,0-0.3,0-0.5C4.7,4,4.1,4.6,3.7,5.3z M11.4,5.4C11.2,5.6,11,5.8,10.8,6c0,0,0,0.1,0,0.1c0,0.3,0,0.6,0,1
		c0,0.1,0,0.2-0.1,0.3c-0.3,0.4-0.5,0.7-0.8,1.1C9.9,8.6,9.8,8.8,9.8,8.9c0,0.2,0,0.3,0,0.5c0,0.4,0.1,0.8,0.1,1.2c0,0,0,0.1,0,0.1
		c0.1,0.1,0.2,0.2,0.3,0.2C12,9.5,12.3,7.1,11.4,5.4z M7.2,11.9c0.4,0,0.9,0,1.3-0.1c-0.1-0.2-0.2-0.3-0.4-0.5
		c-0.1-0.1-0.2-0.1-0.3-0.1C7.5,11.3,7.3,11.5,7.2,11.9z"/>
</g>
</svg>
