<?xml version="1.0" encoding="utf-8"?>
<!-- Generator: Adobe Illustrator 26.0.1, SVG Export Plug-In . SVG Version: 6.00 Build 0)  -->
<svg version="1.1" id="Layer_1" xmlns="http://www.w3.org/2000/svg" xmlns:xlink="http://www.w3.org/1999/xlink" x="0px" y="0px"
	 viewBox="0 0 15 15" style="enable-background:new 0 0 15 15;" xml:space="preserve">
<style type="text/css">
	.st0{fill:#FFD013;stroke:#FFD013;stroke-width:0.25;stroke-miterlimit:10;}
</style>
<g>
	<path class="st0" d="M12.9,2.2c0,3.5,0,7,0,10.5c0,0-0.1,0-0.1,0c-3.5,0-7.1,0-10.6,0c0,0-0.1,0-0.1,0c0-3.5,0-7,0-10.5
		c0,0,0.1,0,0.1,0c3.5,0,7,0,10.6,0C12.8,2.2,12.9,2.2,12.9,2.2z M7.2,12.1c0-0.9,0-1.8,0-2.7c-0.3,0.3-0.5,0.5-0.8,0.8
		C6.2,10,6,9.8,5.9,9.7C6.4,9.2,7,8.6,7.5,8.1C8,8.6,8.6,9.2,9.1,9.7C9,9.9,8.8,10,8.7,10.2C8.4,9.9,8.1,9.6,7.8,9.4
		c0,0.9,0,1.8,0,2.7c1.5,0,2.9,0,4.4,0c0-3.1,0-6.1,0-9.2c-0.9,0-1.8,0-2.7,0c0,1,0,1.9,0,2.9c-1.4,0-2.7,0-4.1,0c0-1,0-1.9,0-2.9
		c-0.9,0-1.8,0-2.7,0c0,3.1,0,6.1,0,9.2C4.2,12.1,5.7,12.1,7.2,12.1z M8.9,5.1c0-0.7,0-1.5,0-2.2c-0.9,0-1.8,0-2.7,0
		c0,0.7,0,1.5,0,2.2C7,5.1,7.9,5.1,8.9,5.1z"/>
</g>
</svg>
