<?xml version="1.0" encoding="utf-8"?>
<!-- Generator: Adobe Illustrator 26.5.0, SVG Export Plug-In . SVG Version: 6.00 Build 0)  -->
<svg version="1.1" id="Layer_1" xmlns="http://www.w3.org/2000/svg" xmlns:xlink="http://www.w3.org/1999/xlink" x="0px" y="0px"
	 viewBox="0 0 238 89" style="enable-background:new 0 0 238 89;" xml:space="preserve">
<style type="text/css">
	.st0{fill:url(#SVGID_1_);}
	.st1{fill:url(#SVGID_00000075878066564591560120000017764483310277980054_);}
	.st2{fill:url(#SVGID_00000065791614591185038390000014683163241993529992_);}
	.st3{fill:url(#SVGID_00000159457274315907753460000012387091345627830962_);}
	.st4{fill:url(#SVGID_00000063632392782427427310000016729547090831383739_);}
	.st5{fill:#283A85;}
</style>
<g>
	<g>
		<linearGradient id="SVGID_1_" gradientUnits="userSpaceOnUse" x1="55.0264" y1="15.5753" x2="55.0345" y2="15.5753">
			<stop  offset="1.385225e-07" style="stop-color:#ED538C"/>
			<stop  offset="0.1838" style="stop-color:#104B7F"/>
			<stop  offset="0.5145" style="stop-color:#1D9D49"/>
			<stop  offset="1" style="stop-color:#F8AE1C"/>
		</linearGradient>
		<path class="st0" d="M55.03,15.48L55.03,15.48c0,0.06,0,0.13,0,0.19C55.03,15.55,55.03,15.48,55.03,15.48z"/>
		
			<linearGradient id="SVGID_00000102541047216357798020000009128748597681442442_" gradientUnits="userSpaceOnUse" x1="60.9021" y1="15.4999" x2="60.9048" y2="15.4999">
			<stop  offset="1.385225e-07" style="stop-color:#ED538C"/>
			<stop  offset="0.1838" style="stop-color:#104B7F"/>
			<stop  offset="0.5145" style="stop-color:#1D9D49"/>
			<stop  offset="1" style="stop-color:#F8AE1C"/>
		</linearGradient>
		<path style="fill:url(#SVGID_00000102541047216357798020000009128748597681442442_);" d="M60.9,15.48v0.04
			C60.9,15.51,60.9,15.49,60.9,15.48L60.9,15.48z"/>
		
			<linearGradient id="SVGID_00000070798060383106468340000013473525962040059778_" gradientUnits="userSpaceOnUse" x1="60.9048" y1="40.9311" x2="60.9102" y2="40.9311">
			<stop  offset="1.385225e-07" style="stop-color:#ED538C"/>
			<stop  offset="0.1838" style="stop-color:#104B7F"/>
			<stop  offset="0.5145" style="stop-color:#1D9D49"/>
			<stop  offset="1" style="stop-color:#F8AE1C"/>
		</linearGradient>
		<path style="fill:url(#SVGID_00000070798060383106468340000013473525962040059778_);" d="M60.91,36.99v7.89
			c0,0.05,0,0.1-0.01,0.15v-8.19C60.91,36.88,60.91,36.94,60.91,36.99z"/>
		
			<linearGradient id="SVGID_00000090274587852465836460000015344719936951006096_" gradientUnits="userSpaceOnUse" x1="59.1336" y1="57.4946" x2="102.4905" y2="57.4946">
			<stop  offset="0.2492" style="stop-color:#784B98"/>
			<stop  offset="0.5592" style="stop-color:#9E2A84"/>
			<stop  offset="1" style="stop-color:#C1305E"/>
		</linearGradient>
		<path style="fill:url(#SVGID_00000090274587852465836460000015344719936951006096_);" d="M89.53,57.75
			c-2.44,2.64-5.87,4.33-9.77,4.33c-3.62,0-7.05-1.53-9.65-3.94c-2.6-2.42-5.09-6.77-5.09-11.02l-5.88,6.09V64.1
			c0,0.92,0.24,1.62,0.71,2.09c0.47,0.47,1.17,0.71,2.1,0.71h0.26c0.92,0,1.62-0.24,2.09-0.71c0.47-0.47,0.71-1.17,0.71-2.09v-3.34
			c1.75,2.15,3.93,3.93,6.4,5.17c2.47,1.24,5.23,1.94,8.17,1.94c5.48,0,10.49-2.35,14.12-6.04c0.78-0.79,2.15-2.56,2.15-2.56
			l-4.08-4.7C91.76,54.56,90.41,56.8,89.53,57.75z"/>
		
			<linearGradient id="SVGID_00000178207254051127301960000000370186323726980797_" gradientUnits="userSpaceOnUse" x1="15.0601" y1="44.5" x2="130.6754" y2="44.5">
			<stop  offset="1.385225e-07" style="stop-color:#0C7AA8"/>
			<stop  offset="0.0816" style="stop-color:#1478A9"/>
			<stop  offset="0.1459" style="stop-color:#2374A9"/>
			<stop  offset="0.2042" style="stop-color:#346DA9"/>
			<stop  offset="0.2588" style="stop-color:#4363A9"/>
			<stop  offset="0.2642" style="stop-color:#4562A9"/>
			<stop  offset="0.4117" style="stop-color:#784B98"/>
			<stop  offset="0.5592" style="stop-color:#9E2A84"/>
			<stop  offset="1" style="stop-color:#C1305E"/>
		</linearGradient>
		<path style="fill:url(#SVGID_00000178207254051127301960000000370186323726980797_);" d="M116.81,44.09
			c-6.32-1.23-8.87-2.9-8.87-5.79c0-2.9,3.25-5.09,7.9-5.09c3.25,0,5.7,0.97,7.02,2.55c0.42,0.53,0.78,0.98,1.19,1.31
			c0.54,0.44,1.16,0.7,2.06,0.7c1.93,0,3.07-1.23,2.28-3.07c-1.84-4.22-6.31-7.02-12.55-7.02c-8.77,0-13.34,4.74-13.34,10.61
			c0,6.15,4.13,9.48,13.34,11.32c7.02,1.4,9.48,2.63,9.48,6.32c0,3.51-3.78,6.05-9.48,6.05c-1.31,0-2.54-0.19-3.66-0.53
			c-1.38-0.42-7.19-4.18-8.87-5.45c-1.56-1.18-3.02-2.39-4.32-3.55c0.39-1.54,0.6-3.15,0.6-4.78c0-5.48-2.26-10.49-5.89-14.12
			c-3.63-3.63-8.63-5.89-14.12-5.89c-2.94,0-5.7,0.68-8.17,1.89c-2.47,1.2-4.64,2.93-6.4,5.04V15.52c0-0.01,0-0.03,0-0.04
			c-0.1-1.13-1.06-2.02-2.21-2.02h-1.45c-1.16,0-2.11,0.89-2.21,2.02c-0.01,0.06-0.01,0.13-0.01,0.19v14.92c0,0,0.03,1.07-0.03,2.28
			c0,0,0,1-0.2,2.59c0,0.01,0,0.02,0,0.02c-1.03,5.71-3.66,11.17-6.99,15.65c-1.42,1.91-3.06,3.55-4.58,5.14
			c-3.09,3.24-6.53,5.55-10.85,5.79c-0.27,0.01-0.53,0.02-0.81,0.02c-0.27,0-0.54-0.01-0.81-0.02c-0.73-0.05-1.46-0.15-2.16-0.32
			c-6.33-1.46-11.42-7.43-11.42-14.05c0-7.81,6.76-14.22,14.39-14.22c6.9,0,12.72,4.71,13.97,11.2c0.16,0.85,0.25,1.73,0.25,2.63
			c0,0.41,4.35-6.58,4.16-7.04v-0.01c-2.98-7.33-10.21-12.57-18.56-12.57c-5.88,0-11.05,2.72-14.56,6.93V31.1
			c0-1.84-0.96-2.8-2.81-2.8h-0.26c-1.85,0-2.81,0.96-2.81,2.8v42.23c0,1.22,1,2.22,2.22,2.22h1.45c1.22,0,2.22-1,2.22-2.22V60.76
			c3.51,4.31,8.69,7.11,14.56,7.11c6.45,0,12.23-3.25,15.91-8.12c0.3-0.4,1.45-1.83,3.06-3.81c0.06-0.07,0.12-0.15,0.18-0.22
			c5.3-6.5,15.25-18.47,17.02-19.69c2.34-1.61,5.15-2.55,8.08-2.55c3.9,0,7.33,1.6,9.77,4.18c2.32,2.45,3.77,5.78,3.9,9.46
			c0.01,0.19,0.01,0.38,0.01,0.58c0,1.65-0.27,3.25-0.78,4.76c1.05,1.35,12.55,14.57,23.18,15.08c9.64,0.46,14.83-4.83,14.83-11.58
			C130.68,49.53,126.73,46.11,116.81,44.09z"/>
	</g>
	<g>
		<path class="st5" d="M183.74,35.16c1.18,0,2.13-0.26,2.83-0.77c0.7-0.51,1.06-1.16,1.06-1.95c0-0.44-0.09-0.84-0.26-1.19
			c-0.17-0.36-0.42-0.67-0.74-0.94c-0.33-0.27-0.86-0.56-1.59-0.88c-1.4-0.6-2.1-1.18-2.1-1.74c0-0.34,0.12-0.61,0.37-0.82
			c0.25-0.21,0.6-0.32,1.05-0.32c0.76,0,1.49,0.22,2.17,0.65l0.59-1.49c-0.6-0.42-1.53-0.63-2.8-0.63c-0.98,0-1.78,0.25-2.4,0.75
			s-0.94,1.12-0.94,1.88c0,0.4,0.08,0.77,0.24,1.1c0.16,0.33,0.38,0.62,0.68,0.86c0.29,0.24,0.86,0.55,1.71,0.93
			c0.84,0.38,1.4,0.71,1.67,1.01c0.27,0.3,0.41,0.62,0.41,0.95c0,0.71-0.57,1.06-1.72,1.06c-0.75,0-1.51-0.24-2.28-0.72l-0.72,1.55
			C181.79,34.92,182.72,35.16,183.74,35.16z M176.12,34.99v-9.75h-1.95v9.75H176.12z M164.34,26.71c0.87,0,1.51,0.1,1.92,0.29
			c0.41,0.19,0.61,0.53,0.61,1.01c0,0.59-0.19,0.99-0.57,1.19c-0.38,0.2-0.98,0.31-1.79,0.31c-0.19,0-0.47-0.01-0.83-0.04v-2.71
			C163.91,26.72,164.13,26.71,164.34,26.71z M170.11,34.99l-3.25-4.39c0.59-0.2,1.07-0.53,1.46-1.01c0.39-0.47,0.58-1,0.58-1.58
			c0-1.92-1.4-2.88-4.19-2.88c-0.45,0-1.04,0.02-1.78,0.05s-1.16,0.05-1.27,0.05v9.75h2.03v-4.07c0.53,0.03,0.94,0.04,1.24,0.05
			l2.94,4.03H170.11z M153.87,31.69h-2.65l1.32-3.6L153.87,31.69z M157.4,34.99l-4.43-9.88h-0.86l-4.39,9.88h2.17l0.77-1.98h3.77
			l0.8,1.98H157.4z M140.4,26.71c1.84,0,2.76,0.51,2.76,1.52c0,0.59-0.21,1.02-0.62,1.29c-0.41,0.26-1.06,0.4-1.95,0.4
			c-0.19,0-0.45-0.02-0.78-0.05v-3.12C140,26.72,140.19,26.71,140.4,26.71z M140.69,31.45c2.98,0,4.46-1.12,4.46-3.35
			c0-1-0.4-1.74-1.21-2.21s-2.08-0.71-3.81-0.71c-0.22,0-0.98,0.02-2.28,0.07v9.74h1.95v-3.59
			C140.18,31.44,140.47,31.45,140.69,31.45z"/>
		<path class="st5" d="M209.35,51.52c1.18,0,2.13-0.26,2.83-0.77c0.7-0.51,1.06-1.16,1.06-1.95c0-0.44-0.09-0.84-0.26-1.19
			c-0.17-0.36-0.42-0.67-0.74-0.94c-0.33-0.27-0.86-0.56-1.59-0.88c-1.4-0.6-2.1-1.18-2.1-1.74c0-0.34,0.12-0.61,0.37-0.82
			c0.25-0.21,0.6-0.32,1.05-0.32c0.76,0,1.49,0.22,2.17,0.65l0.59-1.49c-0.6-0.42-1.53-0.63-2.8-0.63c-0.98,0-1.78,0.25-2.4,0.75
			s-0.94,1.12-0.94,1.88c0,0.4,0.08,0.77,0.24,1.1c0.16,0.33,0.38,0.62,0.68,0.86c0.29,0.24,0.86,0.55,1.71,0.93
			c0.84,0.38,1.4,0.71,1.67,1.01c0.27,0.3,0.41,0.62,0.41,0.95c0,0.71-0.57,1.06-1.72,1.06c-0.75,0-1.51-0.24-2.28-0.72l-0.72,1.55
			C207.4,51.28,208.32,51.52,209.35,51.52z M219.05,51.52c1.18,0,2.13-0.26,2.83-0.77c0.7-0.51,1.06-1.16,1.06-1.95
			c0-0.44-0.09-0.84-0.26-1.19c-0.17-0.36-0.42-0.67-0.74-0.94c-0.33-0.27-0.86-0.56-1.59-0.88c-1.4-0.6-2.1-1.18-2.1-1.74
			c0-0.34,0.12-0.61,0.37-0.82c0.25-0.21,0.6-0.32,1.05-0.32c0.76,0,1.49,0.22,2.17,0.65l0.59-1.49c-0.6-0.42-1.53-0.63-2.8-0.63
			c-0.98,0-1.78,0.25-2.4,0.75s-0.94,1.12-0.94,1.88c0,0.4,0.08,0.77,0.24,1.1c0.16,0.33,0.38,0.62,0.68,0.86
			c0.29,0.24,0.86,0.55,1.71,0.93c0.84,0.38,1.4,0.71,1.67,1.01c0.27,0.3,0.41,0.62,0.41,0.95c0,0.71-0.57,1.06-1.72,1.06
			c-0.75,0-1.51-0.24-2.28-0.72l-0.72,1.55C217.1,51.28,218.03,51.52,219.05,51.52z M202.29,43.14V41.6h-7.03v9.75h6.94v-1.54h-4.99
			v-2.92h3.64v-1.47h-3.64v-2.28H202.29z M189.93,51.48V41.6h-1.88v5.88l-5.2-5.88h-0.94v9.76h1.88v-6.04l5.34,6.17H189.93z
			 M176.54,51.35V41.6h-1.95v9.75H176.54z M165.86,51.52c1.18,0,2.13-0.26,2.83-0.77c0.7-0.51,1.06-1.16,1.06-1.95
			c0-0.44-0.09-0.84-0.26-1.19c-0.17-0.36-0.42-0.67-0.74-0.94c-0.33-0.27-0.86-0.56-1.59-0.88c-1.4-0.6-2.1-1.18-2.1-1.74
			c0-0.34,0.12-0.61,0.37-0.82c0.25-0.21,0.6-0.32,1.05-0.32c0.76,0,1.49,0.22,2.17,0.65l0.59-1.49c-0.6-0.42-1.53-0.63-2.8-0.63
			c-0.98,0-1.78,0.25-2.4,0.75s-0.94,1.12-0.94,1.88c0,0.4,0.08,0.77,0.24,1.1c0.16,0.33,0.38,0.62,0.68,0.86
			c0.29,0.24,0.86,0.55,1.71,0.93c0.84,0.38,1.4,0.71,1.67,1.01c0.27,0.3,0.41,0.62,0.41,0.95c0,0.71-0.57,1.06-1.72,1.06
			c-0.75,0-1.51-0.24-2.28-0.72l-0.72,1.55C163.9,51.28,164.83,51.52,165.86,51.52z M150.09,48.3c0,1.03,0.35,1.83,1.04,2.38
			c0.69,0.55,1.68,0.83,2.96,0.83c1.27,0,2.28-0.28,3.04-0.85c0.76-0.57,1.14-1.35,1.14-2.36V41.6h-1.95v6.58
			c0,0.56-0.2,1-0.59,1.32c-0.39,0.32-0.94,0.48-1.65,0.48c-0.63,0-1.13-0.16-1.49-0.49c-0.36-0.33-0.54-0.75-0.54-1.28V41.6h-1.95
			V48.3z M140.79,46.66c0.91,0,1.55,0.13,1.92,0.38c0.37,0.25,0.55,0.66,0.55,1.21c0,0.61-0.2,1.04-0.59,1.3
			c-0.39,0.26-1.03,0.39-1.9,0.39c-0.25,0-0.57-0.02-0.96-0.05v-3.22C140.27,46.66,140.6,46.66,140.79,46.66z M140.93,42.96
			c1.16,0,1.74,0.38,1.74,1.12c0,0.85-0.64,1.27-1.91,1.27c-0.33,0-0.65-0.01-0.95-0.03v-2.34
			C140.25,42.97,140.62,42.96,140.93,42.96z M144.15,50.57c0.76-0.52,1.13-1.23,1.13-2.11c0-1.32-0.68-2.19-2.05-2.61
			c0.92-0.45,1.38-1.06,1.38-1.83c0-0.8-0.32-1.42-0.97-1.85c-0.64-0.43-1.54-0.65-2.68-0.65c-0.6,0-1.64,0.03-3.12,0.09v9.74h3.37
			C142.42,51.35,143.39,51.09,144.15,50.57z"/>
		<path class="st5" d="M209.62,67.71v-1.54h-4.98v-8.21h-1.95v9.75H209.62z M191,60.25c0.47-0.62,1.13-0.93,2.01-0.93
			c1.9,0,2.86,1.14,2.86,3.43c0,1.17-0.26,2.06-0.77,2.67c-0.51,0.61-1.26,0.92-2.24,0.92c-0.83,0-1.47-0.31-1.9-0.94
			c-0.44-0.63-0.65-1.51-0.65-2.65C190.3,61.7,190.53,60.87,191,60.25z M189.45,66.5c0.79,0.91,1.92,1.37,3.4,1.37
			c1.61,0,2.85-0.46,3.72-1.38c0.87-0.92,1.31-2.17,1.31-3.74s-0.42-2.79-1.25-3.66c-0.84-0.87-2.05-1.3-3.63-1.3
			c-1.44,0-2.59,0.48-3.45,1.44c-0.86,0.96-1.29,2.14-1.29,3.52C188.27,64.34,188.66,65.59,189.45,66.5z M177.1,60.25
			c0.47-0.62,1.13-0.93,2.01-0.93c1.9,0,2.86,1.14,2.86,3.43c0,1.17-0.26,2.06-0.77,2.67c-0.51,0.61-1.26,0.92-2.24,0.92
			c-0.83,0-1.47-0.31-1.9-0.94c-0.44-0.63-0.65-1.51-0.65-2.65C176.4,61.7,176.63,60.87,177.1,60.25z M175.55,66.5
			c0.79,0.91,1.92,1.37,3.4,1.37c1.61,0,2.85-0.46,3.72-1.38c0.87-0.92,1.31-2.17,1.31-3.74s-0.42-2.79-1.25-3.66
			c-0.84-0.87-2.05-1.3-3.63-1.3c-1.44,0-2.59,0.48-3.45,1.44c-0.86,0.96-1.29,2.14-1.29,3.52
			C174.37,64.34,174.76,65.59,175.55,66.5z M169.56,67.71v-9.75h-1.93v3.82h-4.38v-3.82h-1.95v9.75h1.95v-4.39h4.38v4.39H169.56z
			 M153.32,57.79c-1.47,0-2.68,0.48-3.63,1.45c-0.94,0.97-1.42,2.18-1.42,3.62c0,1.55,0.43,2.77,1.28,3.67
			c0.85,0.9,2.05,1.34,3.58,1.34c1.54,0,2.71-0.37,3.5-1.12l-0.91-1.4c-0.59,0.66-1.4,0.99-2.43,0.99c-0.91,0-1.63-0.31-2.18-0.92
			c-0.54-0.61-0.82-1.44-0.82-2.48c0-1.04,0.29-1.9,0.88-2.59c0.59-0.68,1.34-1.02,2.25-1.02c0.97,0,1.67,0.19,2.1,0.58l0.8-1.43
			C155.59,58.02,154.58,57.79,153.32,57.79z M140.11,67.87c1.18,0,2.13-0.26,2.83-0.77c0.7-0.51,1.06-1.16,1.06-1.95
			c0-0.44-0.09-0.84-0.26-1.19c-0.17-0.36-0.42-0.67-0.74-0.94c-0.33-0.27-0.86-0.56-1.59-0.88c-1.4-0.6-2.1-1.18-2.1-1.74
			c0-0.34,0.12-0.61,0.37-0.82c0.25-0.21,0.6-0.32,1.05-0.32c0.76,0,1.49,0.22,2.17,0.65l0.59-1.49c-0.6-0.42-1.53-0.63-2.8-0.63
			c-0.98,0-1.78,0.25-2.4,0.75s-0.94,1.12-0.94,1.88c0,0.4,0.08,0.77,0.24,1.1c0.16,0.33,0.38,0.62,0.68,0.86
			c0.29,0.24,0.86,0.55,1.71,0.93c0.84,0.38,1.4,0.71,1.67,1.01c0.27,0.3,0.41,0.62,0.41,0.95c0,0.71-0.57,1.06-1.72,1.06
			c-0.75,0-1.51-0.24-2.28-0.72l-0.72,1.55C138.15,67.64,139.08,67.87,140.11,67.87z"/>
	</g>
</g>
</svg>
